<mxfile host="app.diagrams.net" agent="Mozilla/5.0 (Windows NT 10.0; Win64; x64) AppleWebKit/537.36 (KHTML, like Gecko) Chrome/134.0.0.0 Safari/537.36" version="26.1.0">
  <diagram name="Page-1" id="kF8VwcEXoSXP59SHSPxZ">
    <mxGraphModel dx="1050" dy="565" grid="1" gridSize="10" guides="1" tooltips="1" connect="1" arrows="1" fold="1" page="1" pageScale="1" pageWidth="850" pageHeight="1100" math="0" shadow="0">
      <root>
        <mxCell id="0" />
        <mxCell id="1" parent="0" />
        <mxCell id="zalG3L_DkFnhfxF5UG2o-13" value="" style="edgeStyle=orthogonalEdgeStyle;rounded=0;orthogonalLoop=1;jettySize=auto;html=1;" edge="1" parent="1" source="zalG3L_DkFnhfxF5UG2o-1" target="zalG3L_DkFnhfxF5UG2o-2">
          <mxGeometry relative="1" as="geometry" />
        </mxCell>
        <mxCell id="zalG3L_DkFnhfxF5UG2o-1" value="Login" style="rounded=0;whiteSpace=wrap;html=1;" vertex="1" parent="1">
          <mxGeometry x="170" y="160" width="130" height="60" as="geometry" />
        </mxCell>
        <mxCell id="zalG3L_DkFnhfxF5UG2o-4" value="" style="edgeStyle=orthogonalEdgeStyle;rounded=0;orthogonalLoop=1;jettySize=auto;html=1;" edge="1" parent="1" source="zalG3L_DkFnhfxF5UG2o-2" target="zalG3L_DkFnhfxF5UG2o-3">
          <mxGeometry relative="1" as="geometry" />
        </mxCell>
        <mxCell id="zalG3L_DkFnhfxF5UG2o-2" value="Home page" style="rounded=0;whiteSpace=wrap;html=1;" vertex="1" parent="1">
          <mxGeometry x="365" y="160" width="120" height="60" as="geometry" />
        </mxCell>
        <mxCell id="zalG3L_DkFnhfxF5UG2o-6" value="" style="edgeStyle=orthogonalEdgeStyle;rounded=0;orthogonalLoop=1;jettySize=auto;html=1;" edge="1" parent="1" source="zalG3L_DkFnhfxF5UG2o-3" target="zalG3L_DkFnhfxF5UG2o-5">
          <mxGeometry relative="1" as="geometry" />
        </mxCell>
        <mxCell id="zalG3L_DkFnhfxF5UG2o-3" value="Select platform" style="whiteSpace=wrap;html=1;rounded=0;" vertex="1" parent="1">
          <mxGeometry x="565" y="160" width="120" height="60" as="geometry" />
        </mxCell>
        <mxCell id="zalG3L_DkFnhfxF5UG2o-8" value="" style="edgeStyle=orthogonalEdgeStyle;rounded=0;orthogonalLoop=1;jettySize=auto;html=1;" edge="1" parent="1" source="zalG3L_DkFnhfxF5UG2o-5" target="zalG3L_DkFnhfxF5UG2o-7">
          <mxGeometry relative="1" as="geometry" />
        </mxCell>
        <mxCell id="zalG3L_DkFnhfxF5UG2o-5" value="Create insta page with category" style="whiteSpace=wrap;html=1;rounded=0;" vertex="1" parent="1">
          <mxGeometry x="565" y="300" width="120" height="60" as="geometry" />
        </mxCell>
        <mxCell id="zalG3L_DkFnhfxF5UG2o-10" value="" style="edgeStyle=orthogonalEdgeStyle;rounded=0;orthogonalLoop=1;jettySize=auto;html=1;" edge="1" parent="1" source="zalG3L_DkFnhfxF5UG2o-7" target="zalG3L_DkFnhfxF5UG2o-9">
          <mxGeometry relative="1" as="geometry" />
        </mxCell>
        <mxCell id="zalG3L_DkFnhfxF5UG2o-7" value="Select category schedule post there" style="whiteSpace=wrap;html=1;rounded=0;" vertex="1" parent="1">
          <mxGeometry x="365" y="300" width="120" height="60" as="geometry" />
        </mxCell>
        <mxCell id="zalG3L_DkFnhfxF5UG2o-12" value="" style="edgeStyle=orthogonalEdgeStyle;rounded=0;orthogonalLoop=1;jettySize=auto;html=1;" edge="1" parent="1" source="zalG3L_DkFnhfxF5UG2o-9" target="zalG3L_DkFnhfxF5UG2o-11">
          <mxGeometry relative="1" as="geometry" />
        </mxCell>
        <mxCell id="zalG3L_DkFnhfxF5UG2o-9" value="Can Select specific&lt;div&gt;page as well&lt;/div&gt;" style="whiteSpace=wrap;html=1;rounded=0;" vertex="1" parent="1">
          <mxGeometry x="165" y="300" width="120" height="60" as="geometry" />
        </mxCell>
        <mxCell id="zalG3L_DkFnhfxF5UG2o-11" value="Can Select specific&lt;div&gt;page as well and schedule post&lt;/div&gt;" style="whiteSpace=wrap;html=1;rounded=0;" vertex="1" parent="1">
          <mxGeometry x="165" y="440" width="120" height="60" as="geometry" />
        </mxCell>
      </root>
    </mxGraphModel>
  </diagram>
</mxfile>
